
<svg width="747" height="108" viewBox="0 0 747 108" fill="none" xmlns="http://www.w3.org/2000/svg">
<mask id="path-1-outside-1" maskUnits="userSpaceOnUse" x="122" y="0" width="625" height="108" fill="black">
<rect fill="white" x="122" width="625" height="108"/>
<path d="M165.989 6.44252C171.627 6.44252 177.073 7.54406 182.329 9.74712C187.584 11.8544 192.219 14.9674 196.232 19.0862C205.118 28.1858 209.562 39.8238 209.562 54C209.562 68.1762 205.118 79.8142 196.232 88.9138C192.219 93.0326 187.584 96.1935 182.329 98.3966C177.073 100.504 171.627 101.557 165.989 101.557H126V6.44252H165.989ZM165.559 91.3563C175.497 91.3563 183.571 87.6686 189.782 80.2931C195.802 73.205 198.812 64.4406 198.812 54C198.812 43.5594 195.802 34.795 189.782 27.7069C183.571 20.3314 175.497 16.6437 165.559 16.6437H136.75V91.3563H165.559Z"/>
<path d="M280.525 90.0632C274.791 98.4923 266.239 102.707 254.868 102.707C244.549 102.707 236.14 99.1149 229.642 91.931C223.336 84.8429 220.183 76.0786 220.183 65.6379C220.183 55.1973 223.336 46.4329 229.642 39.3448C236.14 32.1609 244.788 28.569 255.585 28.569C266.383 28.569 274.696 32.8314 280.525 41.3563V29.7184H291.274V101.557H280.525V90.0632ZM256.302 92.9368C264.042 92.9368 270.157 90.2548 274.648 84.8908C278.948 79.8142 281.098 73.3966 281.098 65.6379C281.098 57.8793 278.948 51.4617 274.648 46.3851C270.157 41.0211 264.042 38.3391 256.302 38.3391C248.658 38.3391 242.447 41.0211 237.669 46.3851C233.178 51.4617 230.932 57.8793 230.932 65.6379C230.932 73.3966 233.178 79.8142 237.669 84.8908C242.447 90.2548 248.658 92.9368 256.302 92.9368Z"/>
<path d="M317.608 101.557V39.2011H302.988V29.7184H317.608V4H328.358V29.7184H344.841V39.2011H328.358V101.557H317.608Z"/>
<path d="M411.118 90.0632C405.384 98.4923 396.832 102.707 385.461 102.707C375.142 102.707 366.733 99.1149 360.235 91.931C353.929 84.8429 350.776 76.0786 350.776 65.6379C350.776 55.1973 353.929 46.4329 360.235 39.3448C366.733 32.1609 375.381 28.569 386.178 28.569C396.976 28.569 405.289 32.8314 411.118 41.3563V29.7184H421.867V101.557H411.118V90.0632ZM386.895 92.9368C394.635 92.9368 400.75 90.2548 405.241 84.8908C409.541 79.8142 411.691 73.3966 411.691 65.6379C411.691 57.8793 409.541 51.4617 405.241 46.3851C400.75 41.0211 394.635 38.3391 386.895 38.3391C379.25 38.3391 373.039 41.0211 368.262 46.3851C363.771 51.4617 361.525 57.8793 361.525 65.6379C361.525 73.3966 363.771 79.8142 368.262 84.8908C373.039 90.2548 379.25 92.9368 386.895 92.9368Z"/>
<path d="M482.6 48.9713C481.645 41.5 475.625 37.7644 464.541 37.7644C453.552 37.7644 448.058 41.2126 448.058 48.1092C448.058 50.9828 449.204 53.1858 451.498 54.7184C453.886 56.1552 456.849 57.3525 460.384 58.3103C463.919 59.2682 467.742 60.1782 471.85 61.0402C476.055 61.8065 479.925 62.9559 483.46 64.4885C486.996 65.9253 489.91 67.9368 492.203 70.523C494.592 73.1092 495.787 76.6533 495.787 81.1552C495.787 88.1475 493.159 93.5115 487.903 97.2471C482.648 100.887 475.529 102.707 466.547 102.707C456.992 102.707 449.395 100.312 443.758 95.523C438.598 91.3084 435.827 85.8008 435.445 79H446.624C447.293 85.6092 451.02 90.0632 457.804 92.3621C460.288 93.1283 462.725 93.5115 465.114 93.5115C467.598 93.5115 469.892 93.3678 471.994 93.0805C474.096 92.7931 476.15 92.2663 478.157 91.5C482.744 89.6801 485.037 86.5671 485.037 82.1609C485.037 79.1916 483.842 76.9406 481.454 75.4081C479.16 73.7797 476.246 72.4866 472.71 71.5287C469.175 70.4751 465.305 69.5651 461.101 68.7989C456.992 67.9368 453.17 66.7874 449.634 65.3506C446.099 63.9138 443.137 61.9502 440.748 59.4598C438.454 56.9694 437.308 53.5211 437.308 49.1149C437.308 42.6015 439.649 37.5728 444.331 34.0287C449.109 30.3889 456.132 28.569 465.401 28.569C474.191 28.569 481.119 30.6762 486.183 34.8908C490.388 38.4349 492.824 43.1284 493.493 48.9713H482.6Z"/>
<path d="M541.569 92.9368C551.22 92.9368 558.148 88.9138 562.352 80.8678H574.105C571.621 87.3812 567.656 92.6494 562.209 96.6724C556.858 100.695 549.93 102.707 541.426 102.707C530.629 102.707 521.838 99.1149 515.053 91.931C508.46 84.9387 505.163 76.1743 505.163 65.6379C505.163 55.0057 508.317 46.2414 514.623 39.3448C521.312 32.1609 530.007 28.569 540.709 28.569C551.411 28.569 560.107 32.1609 566.796 39.3448C573.102 46.2414 576.255 55.0057 576.255 65.6379V69.9483H516.2C516.964 76.5575 519.592 82.0172 524.083 86.3276C528.67 90.7337 534.498 92.9368 541.569 92.9368ZM540.709 38.3391C534.116 38.3391 528.574 40.3985 524.083 44.5172C519.879 48.4444 517.299 53.569 516.343 59.8908H565.076C564.12 53.569 561.54 48.4444 557.336 44.5172C552.845 40.3985 547.303 38.3391 540.709 38.3391Z"/>
<path d="M708.314 92.9368C717.965 92.9368 724.893 88.9138 729.097 80.8678H740.85C738.366 87.3812 734.4 92.6494 728.954 96.6724C723.603 100.695 716.675 102.707 708.171 102.707C697.373 102.707 688.582 99.1149 681.798 91.931C675.205 84.9387 671.908 76.1743 671.908 65.6379C671.908 55.0057 675.061 46.2414 681.368 39.3448C688.057 32.1609 696.752 28.569 707.454 28.569C718.156 28.569 726.851 32.1609 733.54 39.3448C739.847 46.2414 743 55.0057 743 65.6379V69.9483H682.945C683.709 76.5575 686.337 82.0172 690.828 86.3276C695.414 90.7337 701.243 92.9368 708.314 92.9368ZM707.454 38.3391C700.861 38.3391 695.319 40.3985 690.828 44.5172C686.623 48.4444 684.043 53.569 683.088 59.8908H731.82C730.865 53.569 728.285 48.4444 724.08 44.5172C719.589 40.3985 714.047 38.3391 707.454 38.3391Z"/>
<path d="M600.71 104V41.6437H586.09V32.1609H600.71V6.44252H611.46V32.1609H621.565V37V41.6437H611.46V104H600.71Z"/>
<path d="M636.184 104V41.6437H621.565V37V32.1609H636.184V6.44252H646.934V32.1609H663.417V41.6437H646.934V104H636.184Z"/>
</mask>
<path d="M165.989 6.44252C171.627 6.44252 177.073 7.54406 182.329 9.74712C187.584 11.8544 192.219 14.9674 196.232 19.0862C205.118 28.1858 209.562 39.8238 209.562 54C209.562 68.1762 205.118 79.8142 196.232 88.9138C192.219 93.0326 187.584 96.1935 182.329 98.3966C177.073 100.504 171.627 101.557 165.989 101.557H126V6.44252H165.989ZM165.559 91.3563C175.497 91.3563 183.571 87.6686 189.782 80.2931C195.802 73.205 198.812 64.4406 198.812 54C198.812 43.5594 195.802 34.795 189.782 27.7069C183.571 20.3314 175.497 16.6437 165.559 16.6437H136.75V91.3563H165.559Z" fill="#0E0C82" fill-opacity="0.3"/>
<path d="M280.525 90.0632C274.791 98.4923 266.239 102.707 254.868 102.707C244.549 102.707 236.14 99.1149 229.642 91.931C223.336 84.8429 220.183 76.0786 220.183 65.6379C220.183 55.1973 223.336 46.4329 229.642 39.3448C236.14 32.1609 244.788 28.569 255.585 28.569C266.383 28.569 274.696 32.8314 280.525 41.3563V29.7184H291.274V101.557H280.525V90.0632ZM256.302 92.9368C264.042 92.9368 270.157 90.2548 274.648 84.8908C278.948 79.8142 281.098 73.3966 281.098 65.6379C281.098 57.8793 278.948 51.4617 274.648 46.3851C270.157 41.0211 264.042 38.3391 256.302 38.3391C248.658 38.3391 242.447 41.0211 237.669 46.3851C233.178 51.4617 230.932 57.8793 230.932 65.6379C230.932 73.3966 233.178 79.8142 237.669 84.8908C242.447 90.2548 248.658 92.9368 256.302 92.9368Z" fill="#0E0C82" fill-opacity="0.3"/>
<path d="M317.608 101.557V39.2011H302.988V29.7184H317.608V4H328.358V29.7184H344.841V39.2011H328.358V101.557H317.608Z" fill="#0E0C82" fill-opacity="0.3"/>
<path d="M411.118 90.0632C405.384 98.4923 396.832 102.707 385.461 102.707C375.142 102.707 366.733 99.1149 360.235 91.931C353.929 84.8429 350.776 76.0786 350.776 65.6379C350.776 55.1973 353.929 46.4329 360.235 39.3448C366.733 32.1609 375.381 28.569 386.178 28.569C396.976 28.569 405.289 32.8314 411.118 41.3563V29.7184H421.867V101.557H411.118V90.0632ZM386.895 92.9368C394.635 92.9368 400.75 90.2548 405.241 84.8908C409.541 79.8142 411.691 73.3966 411.691 65.6379C411.691 57.8793 409.541 51.4617 405.241 46.3851C400.75 41.0211 394.635 38.3391 386.895 38.3391C379.25 38.3391 373.039 41.0211 368.262 46.3851C363.771 51.4617 361.525 57.8793 361.525 65.6379C361.525 73.3966 363.771 79.8142 368.262 84.8908C373.039 90.2548 379.25 92.9368 386.895 92.9368Z" fill="#0E0C82" fill-opacity="0.3"/>
<path d="M482.6 48.9713C481.645 41.5 475.625 37.7644 464.541 37.7644C453.552 37.7644 448.058 41.2126 448.058 48.1092C448.058 50.9828 449.204 53.1858 451.498 54.7184C453.886 56.1552 456.849 57.3525 460.384 58.3103C463.919 59.2682 467.742 60.1782 471.85 61.0402C476.055 61.8065 479.925 62.9559 483.46 64.4885C486.996 65.9253 489.91 67.9368 492.203 70.523C494.592 73.1092 495.787 76.6533 495.787 81.1552C495.787 88.1475 493.159 93.5115 487.903 97.2471C482.648 100.887 475.529 102.707 466.547 102.707C456.992 102.707 449.395 100.312 443.758 95.523C438.598 91.3084 435.827 85.8008 435.445 79H446.624C447.293 85.6092 451.02 90.0632 457.804 92.3621C460.288 93.1283 462.725 93.5115 465.114 93.5115C467.598 93.5115 469.892 93.3678 471.994 93.0805C474.096 92.7931 476.15 92.2663 478.157 91.5C482.744 89.6801 485.037 86.5671 485.037 82.1609C485.037 79.1916 483.842 76.9406 481.454 75.4081C479.16 73.7797 476.246 72.4866 472.71 71.5287C469.175 70.4751 465.305 69.5651 461.101 68.7989C456.992 67.9368 453.17 66.7874 449.634 65.3506C446.099 63.9138 443.137 61.9502 440.748 59.4598C438.454 56.9694 437.308 53.5211 437.308 49.1149C437.308 42.6015 439.649 37.5728 444.331 34.0287C449.109 30.3889 456.132 28.569 465.401 28.569C474.191 28.569 481.119 30.6762 486.183 34.8908C490.388 38.4349 492.824 43.1284 493.493 48.9713H482.6Z" fill="#0E0C82" fill-opacity="0.3"/>
<path d="M541.569 92.9368C551.22 92.9368 558.148 88.9138 562.352 80.8678H574.105C571.621 87.3812 567.656 92.6494 562.209 96.6724C556.858 100.695 549.93 102.707 541.426 102.707C530.629 102.707 521.838 99.1149 515.053 91.931C508.46 84.9387 505.163 76.1743 505.163 65.6379C505.163 55.0057 508.317 46.2414 514.623 39.3448C521.312 32.1609 530.007 28.569 540.709 28.569C551.411 28.569 560.107 32.1609 566.796 39.3448C573.102 46.2414 576.255 55.0057 576.255 65.6379V69.9483H516.2C516.964 76.5575 519.592 82.0172 524.083 86.3276C528.67 90.7337 534.498 92.9368 541.569 92.9368ZM540.709 38.3391C534.116 38.3391 528.574 40.3985 524.083 44.5172C519.879 48.4444 517.299 53.569 516.343 59.8908H565.076C564.12 53.569 561.54 48.4444 557.336 44.5172C552.845 40.3985 547.303 38.3391 540.709 38.3391Z" fill="#0E0C82" fill-opacity="0.3"/>
<path d="M708.314 92.9368C717.965 92.9368 724.893 88.9138 729.097 80.8678H740.85C738.366 87.3812 734.4 92.6494 728.954 96.6724C723.603 100.695 716.675 102.707 708.171 102.707C697.373 102.707 688.582 99.1149 681.798 91.931C675.205 84.9387 671.908 76.1743 671.908 65.6379C671.908 55.0057 675.061 46.2414 681.368 39.3448C688.057 32.1609 696.752 28.569 707.454 28.569C718.156 28.569 726.851 32.1609 733.54 39.3448C739.847 46.2414 743 55.0057 743 65.6379V69.9483H682.945C683.709 76.5575 686.337 82.0172 690.828 86.3276C695.414 90.7337 701.243 92.9368 708.314 92.9368ZM707.454 38.3391C700.861 38.3391 695.319 40.3985 690.828 44.5172C686.623 48.4444 684.043 53.569 683.088 59.8908H731.82C730.865 53.569 728.285 48.4444 724.08 44.5172C719.589 40.3985 714.047 38.3391 707.454 38.3391Z" fill="#0E0C82" fill-opacity="0.3"/>
<path d="M600.71 104V41.6437H586.09V32.1609H600.71V6.44252H611.46V32.1609H621.565V37V41.6437H611.46V104H600.71Z" fill="#0E0C82" fill-opacity="0.3"/>
<path d="M636.184 104V41.6437H621.565V37V32.1609H636.184V6.44252H646.934V32.1609H663.417V41.6437H646.934V104H636.184Z" fill="#0E0C82" fill-opacity="0.3"/>
<path d="M623.565 32.1609C623.565 31.0563 622.669 30.1609 621.565 30.1609C620.46 30.1609 619.565 31.0563 619.565 32.1609H623.565ZM619.565 41.6437C619.565 42.7482 620.46 43.6437 621.565 43.6437C622.669 43.6437 623.565 42.7482 623.565 41.6437H619.565ZM619.565 32.1609V37H623.565V32.1609H619.565ZM619.565 37V41.6437H623.565V37H619.565ZM182.329 9.74712L180.782 13.4361L180.811 13.4482L180.84 13.4598L182.329 9.74712ZM196.232 19.0862L193.367 21.8777L193.37 21.8809L196.232 19.0862ZM196.232 88.9138L193.37 86.1191L193.367 86.1223L196.232 88.9138ZM182.329 98.3966L183.817 102.109L183.846 102.098L183.875 102.086L182.329 98.3966ZM126 101.557H122V105.557H126V101.557ZM126 6.44252V2.44252H122V6.44252H126ZM189.782 80.2931L186.733 77.7038L186.728 77.7102L186.722 77.7166L189.782 80.2931ZM189.782 27.7069L186.722 30.2835L186.728 30.2899L186.733 30.2962L189.782 27.7069ZM136.75 16.6437V12.6437H132.75V16.6437H136.75ZM136.75 91.3563H132.75V95.3563H136.75V91.3563ZM280.525 90.0632H284.525V77.07L277.217 87.8136L280.525 90.0632ZM229.642 91.931L226.654 94.5899L226.665 94.6021L226.676 94.6142L229.642 91.931ZM229.642 39.3448L226.676 36.6616L226.665 36.6738L226.654 36.686L229.642 39.3448ZM280.525 41.3563L277.223 43.614L284.525 54.2935V41.3563H280.525ZM280.525 29.7184V25.7184H276.525V29.7184H280.525ZM291.274 29.7184H295.274V25.7184H291.274V29.7184ZM291.274 101.557V105.557H295.274V101.557H291.274ZM280.525 101.557H276.525V105.557H280.525V101.557ZM274.648 84.8908L271.596 82.3055L271.588 82.3142L271.581 82.323L274.648 84.8908ZM274.648 46.3851L271.581 48.9529L271.588 48.9616L271.596 48.9703L274.648 46.3851ZM237.669 46.3851L234.682 43.7246L234.673 43.7347L237.669 46.3851ZM237.669 84.8908L234.673 87.5412L234.682 87.5513L237.669 84.8908ZM317.608 101.557H313.608V105.557H317.608V101.557ZM317.608 39.2011H321.608V35.2011H317.608V39.2011ZM302.988 39.2011H298.988V43.2011H302.988V39.2011ZM302.988 29.7184V25.7184H298.988V29.7184H302.988ZM317.608 29.7184V33.7184H321.608V29.7184H317.608ZM317.608 4V0H313.608V4H317.608ZM328.358 4H332.358V0H328.358V4ZM328.358 29.7184H324.358V33.7184H328.358V29.7184ZM344.841 29.7184H348.841V25.7184H344.841V29.7184ZM344.841 39.2011V43.2011H348.841V39.2011H344.841ZM328.358 39.2011V35.2011H324.358V39.2011H328.358ZM328.358 101.557V105.557H332.358V101.557H328.358ZM411.118 90.0632H415.118V77.07L407.81 87.8136L411.118 90.0632ZM360.235 91.931L357.247 94.5899L357.258 94.6021L357.269 94.6142L360.235 91.931ZM360.235 39.3448L357.269 36.6616L357.258 36.6738L357.247 36.686L360.235 39.3448ZM411.118 41.3563L407.816 43.614L415.118 54.2935V41.3563H411.118ZM411.118 29.7184V25.7184H407.118V29.7184H411.118ZM421.867 29.7184H425.867V25.7184H421.867V29.7184ZM421.867 101.557V105.557H425.867V101.557H421.867ZM411.118 101.557H407.118V105.557H411.118V101.557ZM405.241 84.8908L402.189 82.3055L402.181 82.3142L402.174 82.323L405.241 84.8908ZM405.241 46.3851L402.174 48.9529L402.181 48.9616L402.189 48.9703L405.241 46.3851ZM368.262 46.3851L365.275 43.7246L365.266 43.7347L368.262 46.3851ZM368.262 84.8908L365.266 87.5412L365.275 87.5513L368.262 84.8908ZM482.6 48.9713L478.633 49.4787L479.079 52.9713H482.6V48.9713ZM451.498 54.7184L449.275 58.0441L449.354 58.0971L449.436 58.1462L451.498 54.7184ZM460.384 58.3103L461.43 54.4495V54.4495L460.384 58.3103ZM471.85 61.0402L471.029 64.955L471.081 64.9659L471.133 64.9754L471.85 61.0402ZM483.46 64.4885L481.869 68.1585L481.912 68.1768L481.954 68.1942L483.46 64.4885ZM492.203 70.523L489.21 73.1768L489.237 73.2072L489.265 73.2371L492.203 70.523ZM487.903 97.2471L490.181 100.535L490.201 100.522L490.221 100.507L487.903 97.2471ZM443.758 95.523L446.347 92.4745L446.318 92.4495L446.288 92.425L443.758 95.523ZM435.445 79V75H431.213L431.451 79.2244L435.445 79ZM446.624 79L450.604 78.5972L450.24 75H446.624V79ZM457.804 92.3621L456.52 96.1505L456.572 96.1682L456.625 96.1844L457.804 92.3621ZM471.994 93.0805L472.535 97.0436L471.994 93.0805ZM478.157 91.5L479.584 95.2368L479.608 95.2276L479.632 95.218L478.157 91.5ZM481.454 75.4081L479.138 78.6695L479.214 78.724L479.294 78.7748L481.454 75.4081ZM472.71 71.5287L471.568 75.3621L471.616 75.3764L471.664 75.3896L472.71 71.5287ZM461.101 68.7989L460.279 72.7136L460.331 72.7245L460.383 72.734L461.101 68.7989ZM449.634 65.3506L448.128 69.0563L449.634 65.3506ZM440.748 59.4598L437.805 62.1693L437.833 62.1993L437.861 62.2287L440.748 59.4598ZM444.331 34.0287L446.745 37.2181L446.755 37.2106L444.331 34.0287ZM486.183 34.8908L488.762 31.8324L488.752 31.8243L488.742 31.8162L486.183 34.8908ZM493.493 48.9713V52.9713H497.977L497.467 48.5163L493.493 48.9713ZM562.352 80.8678V76.8678H559.929L558.807 79.0153L562.352 80.8678ZM574.105 80.8678L577.843 82.2934L579.912 76.8678H574.105V80.8678ZM562.209 96.6724L559.832 93.4549L559.819 93.465L559.805 93.4752L562.209 96.6724ZM515.053 91.931L512.143 94.6752L512.145 94.6774L515.053 91.931ZM514.623 39.3448L511.696 36.6191L511.684 36.6322L511.671 36.6455L514.623 39.3448ZM566.796 39.3448L569.747 36.6455L569.735 36.6322L569.723 36.6191L566.796 39.3448ZM576.255 69.9483V73.9483H580.255V69.9483H576.255ZM516.2 69.9483V65.9483H511.711L512.226 70.4079L516.2 69.9483ZM524.083 86.3276L526.854 83.443L526.853 83.4417L524.083 86.3276ZM524.083 44.5172L521.379 41.5693L521.366 41.5816L521.353 41.5941L524.083 44.5172ZM516.343 59.8908L512.388 59.293L511.693 63.8908H516.343V59.8908ZM565.076 59.8908V63.8908H569.726L569.031 59.293L565.076 59.8908ZM557.336 44.5172L560.066 41.5941L560.053 41.5816L560.039 41.5693L557.336 44.5172ZM729.097 80.8678V76.8678H726.674L725.552 79.0153L729.097 80.8678ZM740.85 80.8678L744.587 82.2934L746.657 76.8678H740.85V80.8678ZM728.954 96.6724L726.577 93.4549L726.563 93.465L726.55 93.4752L728.954 96.6724ZM681.798 91.931L678.888 94.6752L678.89 94.6774L681.798 91.931ZM681.368 39.3448L678.44 36.6191L678.428 36.6322L678.416 36.6455L681.368 39.3448ZM733.54 39.3448L736.492 36.6455L736.48 36.6322L736.468 36.6191L733.54 39.3448ZM743 69.9483V73.9483H747V69.9483H743ZM682.945 69.9483V65.9483H678.455L678.971 70.4079L682.945 69.9483ZM690.828 86.3276L693.599 83.443L693.598 83.4417L690.828 86.3276ZM690.828 44.5172L688.124 41.5693L688.111 41.5816L688.097 41.5941L690.828 44.5172ZM683.088 59.8908L679.133 59.293L678.438 63.8908H683.088V59.8908ZM731.82 59.8908V63.8908H736.47L735.775 59.293L731.82 59.8908ZM724.08 44.5172L726.811 41.5941L726.797 41.5816L726.784 41.5693L724.08 44.5172ZM600.71 104H596.71V108H600.71V104ZM600.71 41.6437H604.71V37.6437H600.71V41.6437ZM586.09 41.6437H582.09V45.6437H586.09V41.6437ZM586.09 32.1609V28.1609H582.09V32.1609H586.09ZM600.71 32.1609V36.1609H604.71V32.1609H600.71ZM600.71 6.44252V2.44252H596.71V6.44252H600.71ZM611.46 6.44252H615.46V2.44252H611.46V6.44252ZM611.46 32.1609H607.46V36.1609H611.46V32.1609ZM611.46 41.6437V37.6437H607.46V41.6437H611.46ZM611.46 104V108H615.46V104H611.46ZM636.184 104H632.184V108H636.184V104ZM636.184 41.6437H640.184V37.6437H636.184V41.6437ZM636.184 32.1609V36.1609H640.184V32.1609H636.184ZM636.184 6.44252V2.44252H632.184V6.44252H636.184ZM646.934 6.44252H650.934V2.44252H646.934V6.44252ZM646.934 32.1609H642.934V36.1609H646.934V32.1609ZM663.417 32.1609H667.417V28.1609H663.417V32.1609ZM663.417 41.6437V45.6437H667.417V41.6437H663.417ZM646.934 41.6437V37.6437H642.934V41.6437H646.934ZM646.934 104V108H650.934V104H646.934ZM165.989 10.4425C171.09 10.4425 176.011 11.4361 180.782 13.4361L183.875 6.05814C178.135 3.65206 172.164 2.44252 165.989 2.44252V10.4425ZM180.84 13.4598C185.569 15.3561 189.737 18.1522 193.367 21.8777L199.097 16.2947C194.7 11.7827 189.599 8.35275 183.817 6.03446L180.84 13.4598ZM193.37 21.8809C201.44 30.1449 205.562 40.7377 205.562 54H213.562C213.562 38.9098 208.796 26.2268 199.094 16.2915L193.37 21.8809ZM205.562 54C205.562 67.2623 201.44 77.8551 193.37 86.1191L199.094 91.7085C208.796 81.7732 213.562 69.0902 213.562 54H205.562ZM193.367 86.1223C189.725 89.8601 185.538 92.7141 180.782 94.7076L183.875 102.086C189.631 99.6729 194.712 96.2051 199.097 91.7053L193.367 86.1223ZM180.84 94.6839C176.056 96.6022 171.115 97.5575 165.989 97.5575V105.557C172.139 105.557 178.091 104.405 183.817 102.109L180.84 94.6839ZM165.989 97.5575H126V105.557H165.989V97.5575ZM130 101.557V6.44252H122V101.557H130ZM126 10.4425H165.989V2.44252H126V10.4425ZM165.559 95.3563C176.635 95.3563 185.844 91.179 192.842 82.8697L186.722 77.7166C181.298 84.1582 174.358 87.3563 165.559 87.3563V95.3563ZM192.831 82.8824C199.541 74.982 202.812 65.2651 202.812 54H194.812C194.812 63.6161 192.063 71.428 186.733 77.7038L192.831 82.8824ZM202.812 54C202.812 42.7349 199.541 33.018 192.831 25.1176L186.733 30.2962C192.063 36.572 194.812 44.3839 194.812 54H202.812ZM192.842 25.1303C185.844 16.821 176.635 12.6437 165.559 12.6437V20.6437C174.358 20.6437 181.298 23.8418 186.722 30.2835L192.842 25.1303ZM165.559 12.6437H136.75V20.6437H165.559V12.6437ZM132.75 16.6437V91.3563H140.75V16.6437H132.75ZM136.75 95.3563H165.559V87.3563H136.75V95.3563ZM277.217 87.8136C272.324 95.0077 265.094 98.7069 254.868 98.7069V106.707C267.385 106.707 277.259 101.977 283.832 92.3128L277.217 87.8136ZM254.868 98.7069C245.596 98.7069 238.294 95.5335 232.609 89.2479L226.676 94.6142C233.986 102.696 243.501 106.707 254.868 106.707V98.7069ZM232.631 89.2722C227.043 82.9921 224.183 75.2045 224.183 65.6379H216.183C216.183 76.9526 219.628 86.6937 226.654 94.5899L232.631 89.2722ZM224.183 65.6379C224.183 56.0713 227.043 48.2837 232.631 42.0037L226.654 36.686C219.628 44.5822 216.183 54.3233 216.183 65.6379H224.183ZM232.609 42.028C238.257 35.7839 245.774 32.569 255.585 32.569V24.569C243.801 24.569 234.023 28.538 226.676 36.6616L232.609 42.028ZM255.585 32.569C265.134 32.569 272.179 36.2372 277.223 43.614L283.827 39.0987C277.213 29.4256 267.632 24.569 255.585 24.569V32.569ZM284.525 41.3563V29.7184H276.525V41.3563H284.525ZM280.525 33.7184H291.274V25.7184H280.525V33.7184ZM287.274 29.7184V101.557H295.274V29.7184H287.274ZM291.274 97.5575H280.525V105.557H291.274V97.5575ZM284.525 101.557V90.0632H276.525V101.557H284.525ZM256.302 96.9368C265.083 96.9368 272.377 93.8341 277.715 87.4586L271.581 82.323C267.937 86.6755 263 88.9368 256.302 88.9368V96.9368ZM277.7 87.4761C282.711 81.5598 285.098 74.1775 285.098 65.6379H277.098C277.098 72.6156 275.185 78.0685 271.596 82.3055L277.7 87.4761ZM285.098 65.6379C285.098 57.0984 282.711 49.716 277.7 43.7998L271.596 48.9703C275.185 53.2073 277.098 58.6602 277.098 65.6379H285.098ZM277.715 43.8172C272.377 37.4418 265.083 34.3391 256.302 34.3391V42.3391C263 42.3391 267.937 44.6003 271.581 48.9529L277.715 43.8172ZM256.302 34.3391C247.599 34.3391 240.272 37.4486 234.682 43.7246L240.656 49.0455C244.621 44.5936 249.716 42.3391 256.302 42.3391V34.3391ZM234.673 43.7347C229.442 49.6481 226.932 57.0536 226.932 65.6379H234.932C234.932 58.7051 236.914 53.2753 240.665 49.0354L234.673 43.7347ZM226.932 65.6379C226.932 74.2223 229.442 81.6278 234.673 87.5412L240.665 82.2405C236.914 78.0006 234.932 72.5708 234.932 65.6379H226.932ZM234.682 87.5513C240.272 93.8273 247.599 96.9368 256.302 96.9368V88.9368C249.716 88.9368 244.621 86.6823 240.656 82.2303L234.682 87.5513ZM321.608 101.557V39.2011H313.608V101.557H321.608ZM317.608 35.2011H302.988V43.2011H317.608V35.2011ZM306.988 39.2011V29.7184H298.988V39.2011H306.988ZM302.988 33.7184H317.608V25.7184H302.988V33.7184ZM321.608 29.7184V4H313.608V29.7184H321.608ZM317.608 8H328.358V0H317.608V8ZM324.358 4V29.7184H332.358V4H324.358ZM328.358 33.7184H344.841V25.7184H328.358V33.7184ZM340.841 29.7184V39.2011H348.841V29.7184H340.841ZM344.841 35.2011H328.358V43.2011H344.841V35.2011ZM324.358 39.2011V101.557H332.358V39.2011H324.358ZM328.358 97.5575H317.608V105.557H328.358V97.5575ZM407.81 87.8136C402.917 95.0077 395.687 98.7069 385.461 98.7069V106.707C397.978 106.707 407.852 101.977 414.425 92.3128L407.81 87.8136ZM385.461 98.7069C376.189 98.7069 368.887 95.5335 363.202 89.2479L357.269 94.6142C364.579 102.696 374.094 106.707 385.461 106.707V98.7069ZM363.224 89.2722C357.636 82.9921 354.776 75.2045 354.776 65.6379H346.776C346.776 76.9526 350.221 86.6937 357.247 94.5899L363.224 89.2722ZM354.776 65.6379C354.776 56.0713 357.636 48.2837 363.224 42.0037L357.247 36.686C350.221 44.5822 346.776 54.3233 346.776 65.6379H354.776ZM363.202 42.028C368.85 35.7839 376.367 32.569 386.178 32.569V24.569C374.394 24.569 364.616 28.538 357.269 36.6616L363.202 42.028ZM386.178 32.569C395.727 32.569 402.772 36.2372 407.816 43.614L414.42 39.0987C407.806 29.4256 398.225 24.569 386.178 24.569V32.569ZM415.118 41.3563V29.7184H407.118V41.3563H415.118ZM411.118 33.7184H421.867V25.7184H411.118V33.7184ZM417.867 29.7184V101.557H425.867V29.7184H417.867ZM421.867 97.5575H411.118V105.557H421.867V97.5575ZM415.118 101.557V90.0632H407.118V101.557H415.118ZM386.895 96.9368C395.676 96.9368 402.97 93.8341 408.308 87.4586L402.174 82.323C398.53 86.6755 393.593 88.9368 386.895 88.9368V96.9368ZM408.293 87.4761C413.304 81.5598 415.691 74.1775 415.691 65.6379H407.691C407.691 72.6156 405.777 78.0685 402.189 82.3055L408.293 87.4761ZM415.691 65.6379C415.691 57.0984 413.304 49.716 408.293 43.7998L402.189 48.9703C405.777 53.2073 407.691 58.6602 407.691 65.6379H415.691ZM408.308 43.8172C402.97 37.4418 395.676 34.3391 386.895 34.3391V42.3391C393.593 42.3391 398.53 44.6003 402.174 48.9529L408.308 43.8172ZM386.895 34.3391C378.192 34.3391 370.865 37.4485 365.275 43.7246L371.249 49.0455C375.214 44.5936 380.309 42.3391 386.895 42.3391V34.3391ZM365.266 43.7347C360.035 49.6481 357.525 57.0536 357.525 65.6379H365.525C365.525 58.7051 367.507 53.2753 371.258 49.0354L365.266 43.7347ZM357.525 65.6379C357.525 74.2223 360.035 81.6278 365.266 87.5412L371.258 82.2405C367.507 78.0006 365.525 72.5708 365.525 65.6379H357.525ZM365.275 87.5513C370.865 93.8273 378.192 96.9368 386.895 96.9368V88.9368C380.309 88.9368 375.214 86.6823 371.249 82.2303L365.275 87.5513ZM486.568 48.4638C485.948 43.6204 483.583 39.7147 479.478 37.1673C475.572 34.7435 470.442 33.7644 464.541 33.7644V41.7644C469.723 41.7644 473.146 42.653 475.26 43.9649C477.174 45.1531 478.296 46.8509 478.633 49.4787L486.568 48.4638ZM464.541 33.7644C458.757 33.7644 453.739 34.6485 450.052 36.9626C446.053 39.4724 444.058 43.3892 444.058 48.1092H452.058C452.058 45.9326 452.809 44.677 454.305 43.7386C456.112 42.6044 459.335 41.7644 464.541 41.7644V33.7644ZM444.058 48.1092C444.058 52.2517 445.817 55.7329 449.275 58.0441L453.72 51.3927C452.592 50.6387 452.058 49.7138 452.058 48.1092H444.058ZM449.436 58.1462C452.223 59.8225 455.551 61.145 459.338 62.1712L461.43 54.4495C458.147 53.56 455.55 52.4879 453.559 51.2906L449.436 58.1462ZM459.338 62.1712C462.958 63.1518 466.855 64.0793 471.029 64.955L472.672 57.1255C468.628 56.277 464.881 55.3846 461.43 54.4495L459.338 62.1712ZM471.133 64.9754C475.069 65.6928 478.642 66.7598 481.869 68.1585L485.051 60.8185C481.207 59.1521 477.04 57.9202 472.568 57.1051L471.133 64.9754ZM481.954 68.1942C484.98 69.4238 487.366 71.0971 489.21 73.1768L495.196 67.8691C492.454 64.7764 489.011 62.4268 484.966 60.7828L481.954 68.1942ZM489.265 73.2371C490.797 74.8955 491.787 77.3689 491.787 81.1552H499.787C499.787 75.9377 498.387 71.3229 495.142 67.8089L489.265 73.2371ZM491.787 81.1552C491.787 86.9805 489.686 91.0727 485.586 93.9868L490.221 100.507C496.632 95.9503 499.787 89.3146 499.787 81.1552H491.787ZM485.626 93.9588C481.261 96.9821 475.034 98.7069 466.547 98.7069V106.707C476.025 106.707 484.035 104.792 490.181 100.535L485.626 93.9588ZM466.547 98.7069C457.658 98.7069 451.073 96.4886 446.347 92.4745L441.168 98.5715C447.718 104.136 456.325 106.707 466.547 106.707V98.7069ZM446.288 92.425C442.019 88.9384 439.759 84.4841 439.438 78.7756L431.451 79.2244C431.894 87.1174 435.176 93.6784 441.227 98.6209L446.288 92.425ZM435.445 83H446.624V75H435.445V83ZM442.645 79.4028C443.048 83.3855 444.405 86.9381 446.853 89.8642C449.286 92.7726 452.595 94.8202 456.52 96.1505L459.088 88.5736C456.229 87.605 454.282 86.2762 452.989 84.7306C451.71 83.2027 450.87 81.2237 450.604 78.5972L442.645 79.4028ZM456.625 96.1844C459.458 97.0581 462.292 97.5115 465.114 97.5115V89.5115C463.158 89.5115 461.119 89.1986 458.983 88.5398L456.625 96.1844ZM465.114 97.5115C467.75 97.5115 470.227 97.3592 472.535 97.0436L471.452 89.1173C469.557 89.3764 467.447 89.5115 465.114 89.5115V97.5115ZM472.535 97.0436C474.944 96.7144 477.295 96.1108 479.584 95.2368L476.73 87.7632C475.005 88.4218 473.248 88.8719 471.452 89.1173L472.535 97.0436ZM479.632 95.218C482.432 94.1072 484.839 92.4781 486.537 90.1727C488.259 87.8352 489.037 85.0935 489.037 82.1609H481.037C481.037 83.6345 480.668 84.6524 480.096 85.4278C479.501 86.2355 478.469 87.0729 476.682 87.782L479.632 95.218ZM489.037 82.1609C489.037 77.9051 487.211 74.3496 483.613 72.0413L479.294 78.7748C480.473 79.5316 481.037 80.4781 481.037 82.1609H489.037ZM483.769 72.1466C480.995 70.1766 477.617 68.7138 473.756 67.6679L471.664 75.3896C474.875 76.2594 477.326 77.3828 479.138 78.6695L483.769 72.1466ZM473.853 67.6954C470.158 66.5942 466.144 65.6521 461.818 64.8637L460.383 72.734C464.466 73.4782 468.192 74.356 471.568 75.3621L473.853 67.6954ZM461.922 64.8841C458.024 64.0663 454.433 62.9832 451.14 61.6449L448.128 69.0563C451.906 70.5915 455.959 71.8073 460.279 72.7136L461.922 64.8841ZM451.14 61.6449C448.07 60.3973 445.595 58.7343 443.634 56.6908L437.861 62.2287C440.679 65.1661 444.127 67.4303 448.128 69.0563L451.14 61.6449ZM443.69 56.7502C442.262 55.1992 441.308 52.8286 441.308 49.1149H433.308C433.308 54.2135 434.647 58.7395 437.805 62.1693L443.69 56.7502ZM441.308 49.1149C441.308 43.6971 443.181 39.9159 446.745 37.2181L441.917 30.8394C436.117 35.2297 433.308 41.506 433.308 49.1149H441.308ZM446.755 37.2106C450.548 34.3206 456.56 32.569 465.401 32.569V24.569C455.704 24.569 447.669 26.4572 441.907 30.8469L446.755 37.2106ZM465.401 32.569C473.571 32.569 479.488 34.523 483.625 37.9654L488.742 31.8162C482.75 26.8295 474.812 24.569 465.401 24.569V32.569ZM483.605 37.9492C486.972 40.7868 488.958 44.5201 489.519 49.4262L497.467 48.5163C496.691 41.7366 493.804 36.0829 488.762 31.8324L483.605 37.9492ZM493.493 44.9713H482.6V52.9713H493.493V44.9713ZM541.569 96.9368C546.956 96.9368 551.824 95.8105 556.012 93.3786C560.214 90.9387 563.493 87.3216 565.897 82.7203L558.807 79.0153C557.007 82.46 554.721 84.8774 551.995 86.4605C549.255 88.0516 545.834 88.9368 541.569 88.9368V96.9368ZM562.352 84.8678H574.105V76.8678H562.352V84.8678ZM570.368 79.4423C568.148 85.2628 564.644 89.9007 559.832 93.4549L564.586 99.8899C570.667 95.3981 575.094 89.4997 577.843 82.2934L570.368 79.4423ZM559.805 93.4752C555.315 96.8509 549.3 98.7069 541.426 98.7069V106.707C550.561 106.707 558.401 104.54 564.613 99.8696L559.805 93.4752ZM541.426 98.7069C531.616 98.7069 523.916 95.4895 517.961 89.1847L512.145 94.6774C519.76 102.74 529.641 106.707 541.426 106.707V98.7069ZM517.964 89.1869C512.14 83.0113 509.163 75.2612 509.163 65.6379H501.163C501.163 77.0874 504.78 86.8661 512.143 94.6752L517.964 89.1869ZM509.163 65.6379C509.163 55.8572 512.036 48.1012 517.575 42.0442L511.671 36.6455C504.597 44.3815 501.163 54.1543 501.163 65.6379H509.163ZM517.551 42.0706C523.41 35.7776 531.006 32.569 540.709 32.569V24.569C529.009 24.569 519.214 28.5442 511.696 36.6191L517.551 42.0706ZM540.709 32.569C550.413 32.569 558.009 35.7776 563.868 42.0706L569.723 36.6191C562.205 28.5442 552.41 24.569 540.709 24.569V32.569ZM563.844 42.0442C569.383 48.1012 572.255 55.8572 572.255 65.6379H580.255C580.255 54.1543 576.822 44.3815 569.747 36.6455L563.844 42.0442ZM572.255 65.6379V69.9483H580.255V65.6379H572.255ZM576.255 65.9483H516.2V73.9483H576.255V65.9483ZM512.226 70.4079C513.09 77.8727 516.103 84.2127 521.313 89.2135L526.853 83.4417C523.081 79.8217 520.839 75.2423 520.173 69.4887L512.226 70.4079ZM521.312 89.2122C526.73 94.4166 533.591 96.9368 541.569 96.9368V88.9368C535.406 88.9368 530.61 87.0508 526.854 83.443L521.312 89.2122ZM540.709 34.3391C533.205 34.3391 526.672 36.7158 521.379 41.5693L526.787 47.4652C530.477 44.0812 535.028 42.3391 540.709 42.3391V34.3391ZM521.353 41.5941C516.416 46.2052 513.463 52.1853 512.388 59.293L520.298 60.4886C521.135 54.9526 523.341 50.6837 526.814 47.4404L521.353 41.5941ZM516.343 63.8908H565.076V55.8908H516.343V63.8908ZM569.031 59.293C567.956 52.1853 565.003 46.2052 560.066 41.5941L554.605 47.4404C558.078 50.6837 560.284 54.9526 561.121 60.4886L569.031 59.293ZM560.039 41.5693C554.747 36.7158 548.214 34.3391 540.709 34.3391V42.3391C546.391 42.3391 550.942 44.0812 554.632 47.4652L560.039 41.5693ZM708.314 96.9368C713.701 96.9368 718.569 95.8105 722.757 93.3786C726.958 90.9387 730.238 87.3216 732.642 82.7203L725.552 79.0153C723.752 82.46 721.465 84.8774 718.739 86.4605C715.999 88.0516 712.578 88.9368 708.314 88.9368V96.9368ZM729.097 84.8678H740.85V76.8678H729.097V84.8678ZM737.113 79.4423C734.893 85.2628 731.389 89.9007 726.577 93.4549L731.33 99.8899C737.411 95.3981 741.839 89.4997 744.587 82.2934L737.113 79.4423ZM726.55 93.4752C722.06 96.8509 716.045 98.7069 708.171 98.7069V106.707C717.305 106.707 725.145 104.54 731.357 99.8696L726.55 93.4752ZM708.171 98.7069C698.36 98.7069 690.66 95.4895 684.706 89.1847L678.89 94.6774C686.504 102.74 696.386 106.707 708.171 106.707V98.7069ZM684.708 89.1869C678.885 83.0113 675.908 75.2612 675.908 65.6379H667.908C667.908 77.0874 671.524 86.8661 678.888 94.6752L684.708 89.1869ZM675.908 65.6379C675.908 55.8572 678.781 48.1012 684.32 42.0442L678.416 36.6455C671.342 44.3815 667.908 54.1543 667.908 65.6379H675.908ZM684.295 42.0706C690.155 35.7776 697.751 32.569 707.454 32.569V24.569C695.753 24.569 685.959 28.5442 678.44 36.6191L684.295 42.0706ZM707.454 32.569C717.157 32.569 724.753 35.7776 730.613 42.0706L736.468 36.6191C728.949 28.5442 719.155 24.569 707.454 24.569V32.569ZM730.588 42.0442C736.127 48.1012 739 55.8572 739 65.6379H747C747 54.1543 743.566 44.3815 736.492 36.6455L730.588 42.0442ZM739 65.6379V69.9483H747V65.6379H739ZM743 65.9483H682.945V73.9483H743V65.9483ZM678.971 70.4079C679.834 77.8727 682.848 84.2128 688.058 89.2135L693.598 83.4417C689.826 79.8217 687.584 75.2423 686.918 69.4887L678.971 70.4079ZM688.057 89.2122C693.474 94.4166 700.336 96.9368 708.314 96.9368V88.9368C702.151 88.9368 697.354 87.0508 693.599 83.443L688.057 89.2122ZM707.454 34.3391C699.949 34.3391 693.416 36.7158 688.124 41.5693L693.531 47.4652C697.221 44.0812 701.773 42.3391 707.454 42.3391V34.3391ZM688.097 41.5941C683.161 46.2052 680.207 52.1853 679.133 59.293L687.043 60.4886C687.88 54.9526 690.086 50.6837 693.558 47.4404L688.097 41.5941ZM683.088 63.8908H731.82V55.8908H683.088V63.8908ZM735.775 59.293C734.701 52.1853 731.747 46.2052 726.811 41.5941L721.35 47.4404C724.822 50.6837 727.028 54.9526 727.865 60.4886L735.775 59.293ZM726.784 41.5693C721.492 36.7158 714.959 34.3391 707.454 34.3391V42.3391C713.136 42.3391 717.687 44.0812 721.377 47.4652L726.784 41.5693ZM604.71 104V41.6437H596.71V104H604.71ZM600.71 37.6437H586.09V45.6437H600.71V37.6437ZM590.09 41.6437V32.1609H582.09V41.6437H590.09ZM586.09 36.1609H600.71V28.1609H586.09V36.1609ZM604.71 32.1609V6.44252H596.71V32.1609H604.71ZM600.71 10.4425H611.46V2.44252H600.71V10.4425ZM607.46 6.44252V32.1609H615.46V6.44252H607.46ZM611.46 36.1609H621.565V28.1609H611.46V36.1609ZM621.565 37.6437H611.46V45.6437H621.565V37.6437ZM607.46 41.6437V104H615.46V41.6437H607.46ZM611.46 100H600.71V108H611.46V100ZM640.184 104V41.6437H632.184V104H640.184ZM636.184 37.6437H621.565V45.6437H636.184V37.6437ZM621.565 36.1609H636.184V28.1609H621.565V36.1609ZM640.184 32.1609V6.44252H632.184V32.1609H640.184ZM636.184 10.4425H646.934V2.44252H636.184V10.4425ZM642.934 6.44252V32.1609H650.934V6.44252H642.934ZM646.934 36.1609H663.417V28.1609H646.934V36.1609ZM659.417 32.1609V41.6437H667.417V32.1609H659.417ZM663.417 37.6437H646.934V45.6437H663.417V37.6437ZM642.934 41.6437V104H650.934V41.6437H642.934ZM646.934 100H636.184V108H646.934V100Z" fill="#0E0C82" mask="url(#path-1-outside-1)"/>
<path d="M2 19H102" stroke="#0E0C82" stroke-width="4" stroke-linecap="round" stroke-linejoin="round"/>
<path d="M19 104V21" stroke="#0E0C82" stroke-opacity="0.3" stroke-width="4" stroke-linecap="round" stroke-linejoin="round"/>
<path d="M35 102V19" stroke="#0E0C82" stroke-opacity="0.3" stroke-width="4" stroke-linecap="round" stroke-linejoin="round"/>
<path d="M52 102V19" stroke="#0E0C82" stroke-opacity="0.3" stroke-width="4" stroke-linecap="round" stroke-linejoin="round"/>
<path d="M69 104V21" stroke="#0E0C82" stroke-opacity="0.3" stroke-width="4" stroke-linecap="round" stroke-linejoin="round"/>
<path d="M85 104V21" stroke="#0E0C82" stroke-opacity="0.3" stroke-width="4" stroke-linecap="round" stroke-linejoin="round"/>
<path d="M100 54H2" stroke="#0E0C82" stroke-width="4" stroke-linecap="round" stroke-linejoin="round"/>
<path d="M100 88H2" stroke="#0E0C82" stroke-width="4" stroke-linecap="round" stroke-linejoin="round"/>
<path d="M100 71H2" stroke="#0E0C82" stroke-width="4" stroke-linecap="round" stroke-linejoin="round"/>
<path d="M102 37H4" stroke="#0E0C82" stroke-width="4" stroke-linecap="round" stroke-linejoin="round"/>
<path d="M102 19H4" stroke="#0E0C82" stroke-width="4" stroke-linecap="round" stroke-linejoin="round"/>
<path d="M90.8889 4H13.1111C6.97461 4 2 8.97461 2 15.1111V92.8889C2 99.0254 6.97461 104 13.1111 104H90.8889C97.0254 104 102 99.0254 102 92.8889V15.1111C102 8.97461 97.0254 4 90.8889 4Z" stroke="#0E0C82" stroke-width="4" stroke-linecap="round" stroke-linejoin="round"/>
<path d="M102 19H2C2.56434 8.35495 4.92784 4.46534 15.5 4H87C98.5317 4.27966 101.875 7.50598 102 19Z" fill="#0E0C82" fill-opacity="0.3"/>
</svg>
